<svg width="132" height="34" viewBox="0 0 132 34" fill="none" xmlns="http://www.w3.org/2000/svg">
<path d="M2.59131 15.2061C2.59131 14.7707 2.9443 14.4177 3.37973 14.4177H10.0813C10.5168 14.4177 10.8698 14.7707 10.8698 15.2061V31.3688C10.8698 31.8043 10.5168 32.1573 10.0813 32.1573H3.37973C2.9443 32.1573 2.59131 31.8043 2.59131 31.3688V15.2061Z" fill="#CB7B00"/>
<g filter="url(#filter0_d)">
<path d="M10.2785 29.1364C10.172 29.0121 10.0615 28.8892 9.94684 28.7675C7.51743 26.1895 4.54283 20.2595 4.84106 13.8264H2.78842C2.35299 13.8264 2 14.1794 2 14.6148V30.7775C2 31.213 2.35299 31.566 2.78842 31.566H9.49003C9.92546 31.566 10.2785 31.213 10.2785 30.7775V29.1364Z" fill="url(#paint0_linear)"/>
</g>
<path d="M4.84107 13.8264H9.49004C9.92548 13.8264 10.2785 14.1794 10.2785 14.6148V29.1363C10.172 29.0121 10.0615 28.8892 9.94685 28.7675C7.51744 26.1895 4.54285 20.2595 4.84107 13.8264Z" fill="url(#paint1_linear)"/>
<path d="M26.2441 3.37973C26.2441 2.9443 26.5971 2.59131 27.0326 2.59131H33.7342C34.1696 2.59131 34.5226 2.9443 34.5226 3.37973V31.3688C34.5226 31.8042 34.1696 32.1572 33.7342 32.1572H27.0326C26.5971 32.1572 26.2441 31.8042 26.2441 31.3688V3.37973Z" fill="#002F53"/>
<g filter="url(#filter1_d)">
<path d="M31.802 31.5659C29.001 26.5439 28.0004 20.8622 30.1714 15.491C30.2835 15.2137 30.426 14.8963 30.5869 14.5379C31.638 12.1977 33.474 8.10942 32.7479 2L26.4408 2C26.0053 2 25.6523 2.35299 25.6523 2.78842V30.7775C25.6523 31.2129 26.0053 31.5659 26.4408 31.5659H31.802Z" fill="url(#paint2_linear)"/>
</g>
<path d="M32.7483 2L33.1428 2C33.5783 2 33.9312 2.35299 33.9312 2.78842V30.7775C33.9312 31.2129 33.5782 31.5659 33.1428 31.5659H31.8025C29.0014 26.5439 28.0009 20.8622 30.1718 15.491C30.2839 15.2137 30.4264 14.8963 30.5874 14.5379C31.6384 12.1977 33.4745 8.10942 32.7483 2Z" fill="url(#paint3_linear)"/>
<path d="M14.418 9.29282C14.418 8.85738 14.771 8.50439 15.2064 8.50439H21.908C22.3434 8.50439 22.6964 8.85738 22.6964 9.29282V31.3687C22.6964 31.8041 22.3434 32.1571 21.908 32.1571H15.2064C14.771 32.1571 14.418 31.8041 14.418 31.3687V9.29282Z" fill="#002F53"/>
<g filter="url(#filter2_d)">
<path d="M20.834 31.5661H14.6146C14.1792 31.5661 13.8262 31.2131 13.8262 30.7776V8.70175C13.8262 8.26632 14.1792 7.91333 14.6146 7.91333L15.0528 7.91333C15.2682 10.2551 15.9204 12.5906 17.0423 14.7988C20.1866 20.9873 21.2533 26.6046 20.834 31.5661Z" fill="url(#paint4_linear)"/>
</g>
<path d="M15.0532 7.91333C15.2686 10.2551 15.9208 12.5906 17.0427 14.7988C20.187 20.9873 21.2537 26.6046 20.8344 31.5661H21.3166C21.752 31.5661 22.105 31.2131 22.105 30.7776V8.70175C22.105 8.26632 21.752 7.91333 21.3166 7.91333H15.0532Z" fill="url(#paint5_linear)"/>
<path d="M46.076 29.2006V14.6244H41.0952V12.1096H54.2065V14.6244H49.2012V29.2006H46.076Z" fill="white"/>
<path d="M58.549 29.4936C57.5073 29.4936 56.6527 29.3308 55.9854 29.0053C55.318 28.6635 54.8216 28.2159 54.496 27.6624C54.1705 27.109 54.0077 26.4986 54.0077 25.8313C54.0077 24.7081 54.4472 23.7966 55.3261 23.0967C56.2051 22.3968 57.5236 22.0468 59.2815 22.0468H62.3579V21.7538C62.3579 20.9237 62.1219 20.3133 61.6498 19.9226C61.1778 19.532 60.5918 19.3367 59.8919 19.3367C59.2571 19.3367 58.7037 19.4913 58.2316 19.8006C57.7596 20.0936 57.4666 20.533 57.3526 21.119H54.3007C54.3821 20.2401 54.6751 19.475 55.1797 18.8239C55.7005 18.1729 56.3679 17.6764 57.1817 17.3346C57.9956 16.9765 58.9071 16.7974 59.9163 16.7974C61.6417 16.7974 63.0008 17.2288 63.9937 18.0915C64.9866 18.9542 65.4831 20.1749 65.4831 21.7538V29.2006H62.8218L62.5288 27.2474C62.1707 27.8984 61.6661 28.4356 61.015 28.8588C60.3802 29.282 59.5582 29.4936 58.549 29.4936ZM59.2571 27.052C60.1523 27.052 60.8441 26.759 61.3324 26.1731C61.837 25.5871 62.1544 24.8628 62.2846 24.0001H59.6233C58.7932 24.0001 58.1991 24.1547 57.841 24.464C57.4829 24.757 57.3038 25.1232 57.3038 25.5627C57.3038 26.0347 57.4829 26.401 57.841 26.6614C58.1991 26.9218 58.6711 27.052 59.2571 27.052Z" fill="white"/>
<path d="M73.0067 29.4936C71.493 29.4936 70.321 29.0216 69.4909 28.0775C68.677 27.1334 68.2701 25.7499 68.2701 23.9268V17.0904H71.3709V23.6338C71.3709 24.6756 71.5825 25.4732 72.0057 26.0266C72.4289 26.58 73.0963 26.8567 74.0078 26.8567C74.8705 26.8567 75.5785 26.5474 76.132 25.9289C76.7017 25.3104 76.9865 24.4477 76.9865 23.3408V17.0904H80.1117V29.2006H77.3527L77.1086 27.1497C76.7342 27.8659 76.1889 28.4356 75.4727 28.8588C74.7728 29.282 73.9508 29.4936 73.0067 29.4936Z" fill="white"/>
<path d="M88.3251 29.4936C87.2508 29.4936 86.3068 29.3227 85.4929 28.9809C84.6791 28.6228 84.028 28.1345 83.5396 27.5159C83.0513 26.8974 82.7583 26.1812 82.6607 25.3674H85.8103C85.908 25.8394 86.1684 26.2463 86.5916 26.5881C87.0311 26.9137 87.5927 27.0765 88.2763 27.0765C88.9599 27.0765 89.4564 26.9381 89.7657 26.6614C90.0912 26.3847 90.254 26.0673 90.254 25.7092C90.254 25.1883 90.0261 24.8383 89.5703 24.6593C89.1146 24.464 88.4798 24.2768 87.6659 24.0977C87.145 23.9838 86.616 23.8454 86.0789 23.6827C85.5417 23.5199 85.0453 23.3164 84.5895 23.0723C84.15 22.8118 83.7919 22.4863 83.5152 22.0956C83.2385 21.6887 83.1002 21.1923 83.1002 20.6063C83.1002 19.532 83.5234 18.6286 84.3698 17.8961C85.2325 17.1637 86.437 16.7974 87.9833 16.7974C89.4157 16.7974 90.5551 17.1311 91.4015 17.7985C92.2642 18.4658 92.7769 19.3855 92.9397 20.5575H89.9854C89.8064 19.6622 89.1308 19.2146 87.9589 19.2146C87.3729 19.2146 86.9172 19.3285 86.5916 19.5564C86.2823 19.7843 86.1277 20.0691 86.1277 20.411C86.1277 20.7691 86.3637 21.0539 86.8358 21.2655C87.3078 21.4771 87.9345 21.6724 88.7158 21.8515C89.5622 22.0468 90.3354 22.2666 91.0353 22.5107C91.7515 22.7386 92.3212 23.0886 92.7444 23.5606C93.1676 24.0163 93.3792 24.6756 93.3792 25.5383C93.3955 26.287 93.2001 26.9625 92.7932 27.5648C92.3863 28.167 91.8003 28.6391 91.0353 28.9809C90.2702 29.3227 89.3669 29.4936 88.3251 29.4936Z" fill="white"/>
<path d="M101.162 29.2006C99.8925 29.2006 98.8751 28.8914 98.1101 28.2728C97.3451 27.6543 96.9626 26.5556 96.9626 24.9767V19.7029H94.8872V17.0904H96.9626L97.3288 13.8431H100.088V17.0904H103.359V19.7029H100.088V25.0011C100.088 25.5871 100.21 25.994 100.454 26.2219C100.714 26.4335 101.154 26.5393 101.772 26.5393H103.286V29.2006H101.162Z" fill="white"/>
<path d="M110.218 29.4936C109.176 29.4936 108.322 29.3308 107.654 29.0053C106.987 28.6635 106.49 28.2159 106.165 27.6624C105.839 27.109 105.676 26.4986 105.676 25.8313C105.676 24.7081 106.116 23.7966 106.995 23.0967C107.874 22.3968 109.192 22.0468 110.95 22.0468H114.027V21.7538C114.027 20.9237 113.791 20.3133 113.319 19.9226C112.847 19.532 112.261 19.3367 111.561 19.3367C110.926 19.3367 110.372 19.4913 109.9 19.8006C109.428 20.0936 109.135 20.533 109.021 21.119H105.969C106.051 20.2401 106.344 19.475 106.848 18.8239C107.369 18.1729 108.037 17.6764 108.851 17.3346C109.664 16.9765 110.576 16.7974 111.585 16.7974C113.31 16.7974 114.67 17.2288 115.663 18.0915C116.655 18.9542 117.152 20.1749 117.152 21.7538V29.2006H114.491L114.198 27.2474C113.839 27.8984 113.335 28.4356 112.684 28.8588C112.049 29.282 111.227 29.4936 110.218 29.4936ZM110.926 27.052C111.821 27.052 112.513 26.759 113.001 26.1731C113.506 25.5871 113.823 24.8628 113.953 24.0001H111.292C110.462 24.0001 109.868 24.1547 109.51 24.464C109.152 24.757 108.973 25.1232 108.973 25.5627C108.973 26.0347 109.152 26.401 109.51 26.6614C109.868 26.9218 110.34 27.052 110.926 27.052Z" fill="white"/>
<path d="M120.134 29.2006V17.0904H122.893L123.137 19.1413C123.512 18.4252 124.049 17.8555 124.749 17.4322C125.465 17.009 126.303 16.7974 127.264 16.7974C128.761 16.7974 129.925 17.2695 130.755 18.2135C131.585 19.1576 132 20.5412 132 22.3642V29.2006H128.875V22.6572C128.875 21.6155 128.663 20.8179 128.24 20.2645C127.817 19.711 127.158 19.4343 126.263 19.4343C125.384 19.4343 124.659 19.7436 124.09 20.3621C123.536 20.9807 123.259 21.8434 123.259 22.9502V29.2006H120.134Z" fill="white"/>
<defs>
<filter id="filter0_d" x="0.0289397" y="11.8554" width="12.2206" height="21.6817" filterUnits="userSpaceOnUse" color-interpolation-filters="sRGB">
<feFlood flood-opacity="0" result="BackgroundImageFix"/>
<feColorMatrix in="SourceAlpha" type="matrix" values="0 0 0 0 0 0 0 0 0 0 0 0 0 0 0 0 0 0 127 0"/>
<feOffset/>
<feGaussianBlur stdDeviation="0.98553"/>
<feColorMatrix type="matrix" values="0 0 0 0 0 0 0 0 0 0 0 0 0 0 0 0 0 0 0.15 0"/>
<feBlend mode="normal" in2="BackgroundImageFix" result="effect1_dropShadow"/>
<feBlend mode="normal" in="SourceGraphic" in2="effect1_dropShadow" result="shape"/>
</filter>
<filter id="filter1_d" x="23.6813" y="0.0289397" width="11.2032" height="33.508" filterUnits="userSpaceOnUse" color-interpolation-filters="sRGB">
<feFlood flood-opacity="0" result="BackgroundImageFix"/>
<feColorMatrix in="SourceAlpha" type="matrix" values="0 0 0 0 0 0 0 0 0 0 0 0 0 0 0 0 0 0 127 0"/>
<feOffset/>
<feGaussianBlur stdDeviation="0.98553"/>
<feColorMatrix type="matrix" values="0 0 0 0 0 0 0 0 0 0 0 0 0 0 0 0 0 0 0.15 0"/>
<feBlend mode="normal" in2="BackgroundImageFix" result="effect1_dropShadow"/>
<feBlend mode="normal" in="SourceGraphic" in2="effect1_dropShadow" result="shape"/>
</filter>
<filter id="filter2_d" x="11.8551" y="5.94227" width="11.0371" height="27.5948" filterUnits="userSpaceOnUse" color-interpolation-filters="sRGB">
<feFlood flood-opacity="0" result="BackgroundImageFix"/>
<feColorMatrix in="SourceAlpha" type="matrix" values="0 0 0 0 0 0 0 0 0 0 0 0 0 0 0 0 0 0 127 0"/>
<feOffset/>
<feGaussianBlur stdDeviation="0.98553"/>
<feColorMatrix type="matrix" values="0 0 0 0 0 0 0 0 0 0 0 0 0 0 0 0 0 0 0.15 0"/>
<feBlend mode="normal" in2="BackgroundImageFix" result="effect1_dropShadow"/>
<feBlend mode="normal" in="SourceGraphic" in2="effect1_dropShadow" result="shape"/>
</filter>
<linearGradient id="paint0_linear" x1="5.92816" y1="-4.50883" x2="4.81633" y2="43.5373" gradientUnits="userSpaceOnUse">
<stop stop-color="#FFEF00"/>
<stop offset="1" stop-color="#FF9C00"/>
</linearGradient>
<linearGradient id="paint1_linear" x1="6.30047" y1="32.2613" x2="6.30047" y2="13.8922" gradientUnits="userSpaceOnUse">
<stop stop-color="#FFEF00"/>
<stop offset="1" stop-color="#FF9C00"/>
</linearGradient>
<linearGradient id="paint2_linear" x1="33.6304" y1="48.848" x2="5.81513" y2="-34.4118" gradientUnits="userSpaceOnUse">
<stop stop-color="#00AEF0"/>
<stop offset="1" stop-color="#002D60"/>
</linearGradient>
<linearGradient id="paint3_linear" x1="29.7936" y1="3.35386" x2="29.7936" y2="31.5665" gradientUnits="userSpaceOnUse">
<stop stop-color="#00AEF0"/>
<stop offset="1" stop-color="#002D60"/>
</linearGradient>
<linearGradient id="paint4_linear" x1="13.4642" y1="57.6749" x2="34.4744" y2="-24.0157" gradientUnits="userSpaceOnUse">
<stop stop-color="#00AEF0"/>
<stop offset="1" stop-color="#002D60"/>
</linearGradient>
<linearGradient id="paint5_linear" x1="17.9673" y1="30.483" x2="17.9673" y2="7.91287" gradientUnits="userSpaceOnUse">
<stop stop-color="#00AEF0"/>
<stop offset="1" stop-color="#002D60"/>
</linearGradient>
</defs>
</svg>
